<svg xmlns="http://www.w3.org/2000/svg" fill="none" viewBox="0 0 66 28"><path fill="#6F75CF" d="M0 1.071A1.05 1.05 0 0 1 .094.653 1.1 1.1 0 0 1 1.126 0H64.2a1.1 1.1 0 0 1 1.129 1.071v25.855a1.097 1.097 0 0 1-1.129 1.071H1.126a1.101 1.101 0 0 1-1.129-1.071V1.071H0Z"/><path fill="#fff" d="m10.492 17.192 1.194-1.628c.708.583 1.515.983 2.362.983.596 0 .907-.262.907-.636v-.013c0-.347-.261-.559-1.28-.92-1.642-.559-2.797-1.154-2.797-2.735v-.037c0-1.578 1.208-2.684 3.107-2.684 1.169 0 2.195.322 3.108 1.056l-1.132 1.665c-.596-.46-1.317-.795-2.025-.795-.51 0-.795.248-.795.572v.014c0 .384.275.582 1.38.993 1.652.535 2.684 1.207 2.684 2.683v.026c0 1.691-1.304 2.736-3.17 2.736a5.3 5.3 0 0 1-3.54-1.28h-.003ZM19.28 9.65h3.11c2.05 0 3.394 1.07 3.394 3.021v.05c0 2.085-1.516 3.083-3.418 3.107h-.857v2.524h-2.23V9.65Zm3.008 4.351c.78 0 1.254-.46 1.254-1.194v-.037c0-.794-.46-1.207-1.268-1.207h-.768V14h.782V14ZM29.32 9.6h2.263l3.073 8.75h-2.35l-.509-1.566h-2.736l-.496 1.566H26.26l3.062-8.75h-.002Zm1.913 5.394-.808-2.548-.807 2.548h1.615ZM37.164 11.663h-2.156V9.648h6.538v2.015h-2.148v6.687h-2.234v-6.687ZM43.477 9.65h2.237v8.702h-2.236V9.65ZM48.798 9.65h5.992v1.963h-3.778v1.427h3.402v1.852h-3.402v1.495h3.828v1.965h-6.036V9.65h-.006Z"/></svg>
